<mxfile host="app.diagrams.net" modified="2024-06-16T16:48:20.869Z" agent="Mozilla/5.0 (Windows NT 10.0; Win64; x64) AppleWebKit/537.36 (KHTML, like Gecko) Chrome/126.0.0.0 Safari/537.36" etag="KdFtWmR_0q8C38GwSGnI" version="24.5.4" type="github">
  <diagram id="C5RBs43oDa-KdzZeNtuy" name="Page-1">
    <mxGraphModel dx="503" dy="267" grid="1" gridSize="10" guides="1" tooltips="1" connect="1" arrows="1" fold="1" page="1" pageScale="1" pageWidth="827" pageHeight="1169" math="0" shadow="0">
      <root>
        <mxCell id="WIyWlLk6GJQsqaUBKTNV-0" />
        <mxCell id="WIyWlLk6GJQsqaUBKTNV-1" parent="WIyWlLk6GJQsqaUBKTNV-0" />
        <mxCell id="SClHrWBv_q_nf-gA-Tjb-1" value="Bắt đầu" style="ellipse;whiteSpace=wrap;html=1;" vertex="1" parent="WIyWlLk6GJQsqaUBKTNV-1">
          <mxGeometry x="170" y="290" width="100" height="70" as="geometry" />
        </mxCell>
        <mxCell id="SClHrWBv_q_nf-gA-Tjb-2" value="" style="edgeStyle=orthogonalEdgeStyle;rounded=0;orthogonalLoop=1;jettySize=auto;html=1;" edge="1" parent="WIyWlLk6GJQsqaUBKTNV-1" source="SClHrWBv_q_nf-gA-Tjb-3" target="SClHrWBv_q_nf-gA-Tjb-15">
          <mxGeometry relative="1" as="geometry" />
        </mxCell>
        <mxCell id="SClHrWBv_q_nf-gA-Tjb-3" value="Nhấn Quạt ?" style="rhombus;whiteSpace=wrap;html=1;" vertex="1" parent="WIyWlLk6GJQsqaUBKTNV-1">
          <mxGeometry x="150" y="390" width="140" height="80" as="geometry" />
        </mxCell>
        <mxCell id="SClHrWBv_q_nf-gA-Tjb-4" value="" style="endArrow=classic;html=1;rounded=0;exitX=0.5;exitY=1;exitDx=0;exitDy=0;" edge="1" parent="WIyWlLk6GJQsqaUBKTNV-1" source="SClHrWBv_q_nf-gA-Tjb-3">
          <mxGeometry width="50" height="50" relative="1" as="geometry">
            <mxPoint x="350" y="690" as="sourcePoint" />
            <mxPoint x="220" y="520" as="targetPoint" />
          </mxGeometry>
        </mxCell>
        <mxCell id="SClHrWBv_q_nf-gA-Tjb-5" value="Đúng" style="text;html=1;align=center;verticalAlign=middle;whiteSpace=wrap;rounded=0;" vertex="1" parent="WIyWlLk6GJQsqaUBKTNV-1">
          <mxGeometry x="210" y="480" width="60" height="30" as="geometry" />
        </mxCell>
        <mxCell id="SClHrWBv_q_nf-gA-Tjb-6" value="Sai" style="text;html=1;align=center;verticalAlign=middle;whiteSpace=wrap;rounded=0;" vertex="1" parent="WIyWlLk6GJQsqaUBKTNV-1">
          <mxGeometry x="280" y="405" width="60" height="30" as="geometry" />
        </mxCell>
        <mxCell id="SClHrWBv_q_nf-gA-Tjb-29" value="" style="edgeStyle=orthogonalEdgeStyle;rounded=0;orthogonalLoop=1;jettySize=auto;html=1;" edge="1" parent="WIyWlLk6GJQsqaUBKTNV-1" source="SClHrWBv_q_nf-gA-Tjb-7" target="SClHrWBv_q_nf-gA-Tjb-26">
          <mxGeometry relative="1" as="geometry" />
        </mxCell>
        <mxCell id="SClHrWBv_q_nf-gA-Tjb-7" value="Bật quạt" style="rounded=0;whiteSpace=wrap;html=1;" vertex="1" parent="WIyWlLk6GJQsqaUBKTNV-1">
          <mxGeometry x="160" y="520" width="120" height="40" as="geometry" />
        </mxCell>
        <mxCell id="SClHrWBv_q_nf-gA-Tjb-8" style="edgeStyle=orthogonalEdgeStyle;rounded=0;orthogonalLoop=1;jettySize=auto;html=1;" edge="1" parent="WIyWlLk6GJQsqaUBKTNV-1" source="SClHrWBv_q_nf-gA-Tjb-9">
          <mxGeometry relative="1" as="geometry">
            <mxPoint x="420" y="600" as="targetPoint" />
          </mxGeometry>
        </mxCell>
        <mxCell id="SClHrWBv_q_nf-gA-Tjb-9" value="Bật đèn sưởi" style="rounded=0;whiteSpace=wrap;html=1;" vertex="1" parent="WIyWlLk6GJQsqaUBKTNV-1">
          <mxGeometry x="360" y="520" width="120" height="40" as="geometry" />
        </mxCell>
        <mxCell id="SClHrWBv_q_nf-gA-Tjb-11" value="Kết thúc" style="ellipse;whiteSpace=wrap;html=1;" vertex="1" parent="WIyWlLk6GJQsqaUBKTNV-1">
          <mxGeometry x="170" y="780" width="100" height="70" as="geometry" />
        </mxCell>
        <mxCell id="SClHrWBv_q_nf-gA-Tjb-13" value="" style="edgeStyle=orthogonalEdgeStyle;rounded=0;orthogonalLoop=1;jettySize=auto;html=1;" edge="1" parent="WIyWlLk6GJQsqaUBKTNV-1" source="SClHrWBv_q_nf-gA-Tjb-15">
          <mxGeometry relative="1" as="geometry">
            <mxPoint x="550" y="430" as="targetPoint" />
          </mxGeometry>
        </mxCell>
        <mxCell id="SClHrWBv_q_nf-gA-Tjb-14" value="" style="edgeStyle=orthogonalEdgeStyle;rounded=0;orthogonalLoop=1;jettySize=auto;html=1;" edge="1" parent="WIyWlLk6GJQsqaUBKTNV-1" source="SClHrWBv_q_nf-gA-Tjb-15" target="SClHrWBv_q_nf-gA-Tjb-9">
          <mxGeometry relative="1" as="geometry" />
        </mxCell>
        <mxCell id="SClHrWBv_q_nf-gA-Tjb-15" value="Nhấn Đèn sưởi ?" style="rhombus;whiteSpace=wrap;html=1;" vertex="1" parent="WIyWlLk6GJQsqaUBKTNV-1">
          <mxGeometry x="350" y="390" width="140" height="80" as="geometry" />
        </mxCell>
        <mxCell id="SClHrWBv_q_nf-gA-Tjb-16" value="Sai" style="text;html=1;align=center;verticalAlign=middle;whiteSpace=wrap;rounded=0;" vertex="1" parent="WIyWlLk6GJQsqaUBKTNV-1">
          <mxGeometry x="480" y="400" width="60" height="40" as="geometry" />
        </mxCell>
        <mxCell id="SClHrWBv_q_nf-gA-Tjb-19" value="Đúng" style="text;html=1;align=center;verticalAlign=middle;whiteSpace=wrap;rounded=0;" vertex="1" parent="WIyWlLk6GJQsqaUBKTNV-1">
          <mxGeometry x="410" y="480" width="60" height="30" as="geometry" />
        </mxCell>
        <mxCell id="SClHrWBv_q_nf-gA-Tjb-21" value="" style="endArrow=classic;html=1;rounded=0;exitX=0.5;exitY=1;exitDx=0;exitDy=0;entryX=0.5;entryY=0;entryDx=0;entryDy=0;" edge="1" parent="WIyWlLk6GJQsqaUBKTNV-1" target="SClHrWBv_q_nf-gA-Tjb-3">
          <mxGeometry width="50" height="50" relative="1" as="geometry">
            <mxPoint x="220" y="360" as="sourcePoint" />
            <mxPoint x="260" y="420" as="targetPoint" />
          </mxGeometry>
        </mxCell>
        <mxCell id="SClHrWBv_q_nf-gA-Tjb-25" value="" style="edgeStyle=orthogonalEdgeStyle;rounded=0;orthogonalLoop=1;jettySize=auto;html=1;" edge="1" parent="WIyWlLk6GJQsqaUBKTNV-1" source="SClHrWBv_q_nf-gA-Tjb-23" target="SClHrWBv_q_nf-gA-Tjb-24">
          <mxGeometry relative="1" as="geometry" />
        </mxCell>
        <mxCell id="SClHrWBv_q_nf-gA-Tjb-23" value="Nhấn Phun Sương ?" style="rhombus;whiteSpace=wrap;html=1;" vertex="1" parent="WIyWlLk6GJQsqaUBKTNV-1">
          <mxGeometry x="550" y="390" width="140" height="80" as="geometry" />
        </mxCell>
        <mxCell id="SClHrWBv_q_nf-gA-Tjb-30" value="" style="edgeStyle=orthogonalEdgeStyle;rounded=0;orthogonalLoop=1;jettySize=auto;html=1;" edge="1" parent="WIyWlLk6GJQsqaUBKTNV-1" source="SClHrWBv_q_nf-gA-Tjb-24" target="SClHrWBv_q_nf-gA-Tjb-28">
          <mxGeometry relative="1" as="geometry" />
        </mxCell>
        <mxCell id="SClHrWBv_q_nf-gA-Tjb-24" value="Bật phun sương" style="rounded=0;whiteSpace=wrap;html=1;" vertex="1" parent="WIyWlLk6GJQsqaUBKTNV-1">
          <mxGeometry x="560" y="520" width="120" height="40" as="geometry" />
        </mxCell>
        <mxCell id="SClHrWBv_q_nf-gA-Tjb-31" value="" style="edgeStyle=orthogonalEdgeStyle;rounded=0;orthogonalLoop=1;jettySize=auto;html=1;" edge="1" parent="WIyWlLk6GJQsqaUBKTNV-1" source="SClHrWBv_q_nf-gA-Tjb-26" target="SClHrWBv_q_nf-gA-Tjb-27">
          <mxGeometry relative="1" as="geometry" />
        </mxCell>
        <mxCell id="SClHrWBv_q_nf-gA-Tjb-37" value="" style="edgeStyle=orthogonalEdgeStyle;rounded=0;orthogonalLoop=1;jettySize=auto;html=1;" edge="1" parent="WIyWlLk6GJQsqaUBKTNV-1" source="SClHrWBv_q_nf-gA-Tjb-26" target="SClHrWBv_q_nf-gA-Tjb-33">
          <mxGeometry relative="1" as="geometry" />
        </mxCell>
        <mxCell id="SClHrWBv_q_nf-gA-Tjb-26" value="Nhấn mở đèn trang trại ?" style="rhombus;whiteSpace=wrap;html=1;" vertex="1" parent="WIyWlLk6GJQsqaUBKTNV-1">
          <mxGeometry x="130" y="600" width="180" height="80" as="geometry" />
        </mxCell>
        <mxCell id="SClHrWBv_q_nf-gA-Tjb-32" value="" style="edgeStyle=orthogonalEdgeStyle;rounded=0;orthogonalLoop=1;jettySize=auto;html=1;" edge="1" parent="WIyWlLk6GJQsqaUBKTNV-1" source="SClHrWBv_q_nf-gA-Tjb-27" target="SClHrWBv_q_nf-gA-Tjb-28">
          <mxGeometry relative="1" as="geometry" />
        </mxCell>
        <mxCell id="SClHrWBv_q_nf-gA-Tjb-38" value="" style="edgeStyle=orthogonalEdgeStyle;rounded=0;orthogonalLoop=1;jettySize=auto;html=1;" edge="1" parent="WIyWlLk6GJQsqaUBKTNV-1" source="SClHrWBv_q_nf-gA-Tjb-27" target="SClHrWBv_q_nf-gA-Tjb-34">
          <mxGeometry relative="1" as="geometry" />
        </mxCell>
        <mxCell id="SClHrWBv_q_nf-gA-Tjb-27" value="Nhấn mở van cho ăn ?" style="rhombus;whiteSpace=wrap;html=1;" vertex="1" parent="WIyWlLk6GJQsqaUBKTNV-1">
          <mxGeometry x="340" y="600" width="160" height="80" as="geometry" />
        </mxCell>
        <mxCell id="SClHrWBv_q_nf-gA-Tjb-39" value="" style="edgeStyle=orthogonalEdgeStyle;rounded=0;orthogonalLoop=1;jettySize=auto;html=1;" edge="1" parent="WIyWlLk6GJQsqaUBKTNV-1" source="SClHrWBv_q_nf-gA-Tjb-28" target="SClHrWBv_q_nf-gA-Tjb-35">
          <mxGeometry relative="1" as="geometry" />
        </mxCell>
        <mxCell id="SClHrWBv_q_nf-gA-Tjb-28" value="Nhấn vệ sinh chuồng ?" style="rhombus;whiteSpace=wrap;html=1;" vertex="1" parent="WIyWlLk6GJQsqaUBKTNV-1">
          <mxGeometry x="550" y="600" width="140" height="80" as="geometry" />
        </mxCell>
        <mxCell id="SClHrWBv_q_nf-gA-Tjb-33" value="Bật đèn trang trại" style="rounded=0;whiteSpace=wrap;html=1;" vertex="1" parent="WIyWlLk6GJQsqaUBKTNV-1">
          <mxGeometry x="160" y="720" width="120" height="40" as="geometry" />
        </mxCell>
        <mxCell id="SClHrWBv_q_nf-gA-Tjb-34" value="Mở van cho ăn" style="rounded=0;whiteSpace=wrap;html=1;" vertex="1" parent="WIyWlLk6GJQsqaUBKTNV-1">
          <mxGeometry x="360" y="720" width="120" height="40" as="geometry" />
        </mxCell>
        <mxCell id="SClHrWBv_q_nf-gA-Tjb-35" value="Bật vệ sinh chuồng" style="rounded=0;whiteSpace=wrap;html=1;" vertex="1" parent="WIyWlLk6GJQsqaUBKTNV-1">
          <mxGeometry x="560" y="720" width="120" height="40" as="geometry" />
        </mxCell>
        <mxCell id="SClHrWBv_q_nf-gA-Tjb-36" value="Đúng" style="text;html=1;align=center;verticalAlign=middle;whiteSpace=wrap;rounded=0;" vertex="1" parent="WIyWlLk6GJQsqaUBKTNV-1">
          <mxGeometry x="620" y="480" width="60" height="30" as="geometry" />
        </mxCell>
        <mxCell id="SClHrWBv_q_nf-gA-Tjb-40" value="Đúng" style="text;html=1;align=center;verticalAlign=middle;whiteSpace=wrap;rounded=0;" vertex="1" parent="WIyWlLk6GJQsqaUBKTNV-1">
          <mxGeometry x="210" y="680" width="60" height="30" as="geometry" />
        </mxCell>
        <mxCell id="SClHrWBv_q_nf-gA-Tjb-41" value="Đúng" style="text;html=1;align=center;verticalAlign=middle;whiteSpace=wrap;rounded=0;" vertex="1" parent="WIyWlLk6GJQsqaUBKTNV-1">
          <mxGeometry x="410" y="680" width="60" height="30" as="geometry" />
        </mxCell>
        <mxCell id="SClHrWBv_q_nf-gA-Tjb-42" value="Đúng" style="text;html=1;align=center;verticalAlign=middle;whiteSpace=wrap;rounded=0;" vertex="1" parent="WIyWlLk6GJQsqaUBKTNV-1">
          <mxGeometry x="610" y="680" width="60" height="30" as="geometry" />
        </mxCell>
      </root>
    </mxGraphModel>
  </diagram>
</mxfile>
